<svg width="24" height="24" viewBox="0 0 24 24" fill="none" xmlns="http://www.w3.org/2000/svg">
<path d="M14.1608 9.3625L11.4512 7.59844C11.3524 7.53411 11.2382 7.5 11.1217 7.5C10.7783 7.5 10.5 7.78994 10.5 8.1476V11.8524C10.5 12.2101 10.7783 12.5 11.1217 12.5C11.2382 12.5 11.3524 12.4659 11.4512 12.4016L14.1608 10.6375C14.3718 10.5001 14.5 10.2592 14.5 10C14.5 9.7408 14.3718 9.49988 14.1608 9.3625Z" stroke="#9CA3AF" stroke-width="1.5" stroke-linecap="round" stroke-linejoin="round"/>
<path d="M20.5 16.5V8.5C20.5 6.14298 20.5 4.96447 19.7677 4.23223C19.0355 3.5 17.857 3.5 15.5 3.5H8.5C6.14298 3.5 4.96446 3.5 4.23223 4.23223C3.5 4.96447 3.5 6.14298 3.5 8.5V16.5" stroke="#9CA3AF" stroke-width="1.5" stroke-linecap="round" stroke-linejoin="round"/>
<path d="M21.9842 20.5H2.01579C1.63285 20.5 1.38379 20.1088 1.55505 19.7764L3.5 16.5H20.5L22.4449 19.7764C22.6162 20.1088 22.3671 20.5 21.9842 20.5Z" stroke="#9CA3AF" stroke-width="1.5" stroke-linecap="round" stroke-linejoin="round"/>
</svg>
