<svg width="38" height="36" viewBox="0 0 38 36" fill="none" xmlns="http://www.w3.org/2000/svg">
<rect width="37.0386" height="36" rx="1.63636" fill="#D7EAFF"/>
<path d="M8.46252 9.63665C8.46252 9.73955 8.5041 9.83824 8.57812 9.911C8.65214 9.98377 8.75253 10.0246 8.85721 10.0246H17.5285C17.6315 10.0246 17.7305 10.0642 17.8042 10.1348C17.8779 10.2055 17.9207 10.3017 17.9232 10.4029V17.2433C17.9207 17.3445 17.8779 17.4407 17.8042 17.5114C17.7305 17.582 17.6315 17.6216 17.5285 17.6216H2.03104C1.92805 17.6216 1.82913 17.582 1.75539 17.5114C1.68165 17.4407 1.63893 17.3445 1.63635 17.2433V2.02422C1.63635 1.92132 1.67794 1.82263 1.75195 1.74987C1.82597 1.67711 1.92636 1.63623 2.03104 1.63623H17.5187C17.6234 1.63623 17.7237 1.67711 17.7978 1.74987C17.8718 1.82263 17.9134 1.92132 17.9134 2.02422V8.88006C17.9134 8.98297 17.8718 9.08166 17.7978 9.15442C17.7237 9.22718 17.6234 9.26806 17.5187 9.26806H8.85721C8.75586 9.26793 8.65835 9.30614 8.58487 9.37476C8.51139 9.44338 8.46758 9.53715 8.46252 9.63665Z" fill="#040E31"/>
<path d="M8.46252 26.3711C8.46252 26.474 8.5041 26.5727 8.57812 26.6454C8.65214 26.7182 8.75253 26.7591 8.85721 26.7591H17.5285C17.6315 26.7591 17.7305 26.7986 17.8042 26.8693C17.8779 26.94 17.9207 27.0362 17.9232 27.1374V33.9855C17.9207 34.0867 17.8779 34.1829 17.8042 34.2536C17.7305 34.3242 17.6315 34.3638 17.5285 34.3638H2.03104C1.92805 34.3638 1.82913 34.3242 1.75539 34.2536C1.68165 34.1829 1.63893 34.0867 1.63635 33.9855V18.7587C1.63893 18.6575 1.68165 18.5612 1.75539 18.4906C1.82913 18.4199 1.92805 18.3803 2.03104 18.3804H17.5187C17.6217 18.3803 17.7206 18.4199 17.7943 18.4906C17.8681 18.5612 17.9108 18.6575 17.9134 18.7587V25.6145C17.9134 25.7174 17.8718 25.8161 17.7978 25.8889C17.7237 25.9616 17.6234 26.0025 17.5187 26.0025H8.85721C8.75586 26.0024 8.65835 26.0406 8.58487 26.1092C8.51139 26.1778 8.46758 26.2716 8.46252 26.3711Z" fill="#1C4ED1"/>
<path d="M27.8755 5.52999C27.8358 5.62256 27.8342 5.72665 27.871 5.82036C27.9078 5.91407 27.9801 5.99009 28.0728 6.03244L35.1772 9.20623C35.2438 9.23739 35.3002 9.28625 35.3399 9.34728C35.3797 9.40831 35.4013 9.47907 35.4022 9.55154V17.2435C35.4022 17.3448 35.362 17.442 35.2901 17.5145C35.2182 17.587 35.1203 17.629 35.0174 17.6315H19.514C19.411 17.629 19.3131 17.587 19.2412 17.5145C19.1693 17.442 19.1291 17.3448 19.1291 17.2435V15.1813C19.1302 15.1046 19.1544 15.0299 19.1987 14.9668C19.243 14.9036 19.3053 14.8547 19.3778 14.8263L25.9119 12.4227C26.0066 12.3858 26.0831 12.3142 26.1254 12.2231C26.1677 12.132 26.1725 12.0283 26.1388 11.9338C26.1009 11.8411 26.028 11.7663 25.9353 11.7251C25.8427 11.6839 25.7374 11.6794 25.6415 11.7127L19.6481 13.9184C19.5889 13.9395 19.5253 13.9463 19.4628 13.9383C19.4003 13.9302 19.3407 13.9076 19.2889 13.8723C19.2371 13.837 19.1947 13.7899 19.1652 13.7352C19.1357 13.6804 19.1199 13.6195 19.1193 13.5576V2.02447C19.1192 1.92322 19.1595 1.82598 19.2314 1.75349C19.3033 1.681 19.4011 1.63901 19.5041 1.63647H34.9937C35.0967 1.63901 35.1945 1.681 35.2664 1.75349C35.3383 1.82598 35.3786 1.92322 35.3785 2.02447V7.88511C35.3763 7.94766 35.3587 8.00876 35.3273 8.06319C35.2959 8.11762 35.2515 8.16377 35.198 8.19769C35.1445 8.23162 35.0834 8.25231 35.02 8.25801C34.9566 8.26371 34.8927 8.25424 34.8338 8.23042L28.3945 5.34181C28.3001 5.30004 28.1929 5.29636 28.0958 5.33156C27.9988 5.36675 27.9196 5.43801 27.8755 5.52999Z" fill="#16186E"/>
<path d="M35.3864 18.7587V33.9855C35.3838 34.0867 35.3411 34.1829 35.2674 34.2536C35.1936 34.3242 35.0947 34.3638 34.9917 34.3638H25.2764V28.3149C25.2764 28.2644 25.2662 28.2144 25.2462 28.1679C25.2263 28.1214 25.197 28.0792 25.1603 28.044C25.1235 28.0087 25.0799 27.981 25.032 27.9626C24.9842 27.9442 24.9331 27.9354 24.8817 27.9366C24.7805 27.9391 24.684 27.9798 24.6124 28.0502C24.5408 28.1206 24.4994 28.2154 24.4969 28.3149V34.3638H19.514C19.411 34.3638 19.312 34.3242 19.2383 34.2536C19.1646 34.1829 19.1218 34.0867 19.1193 33.9855V18.7587C19.1218 18.6591 19.1631 18.5643 19.2347 18.4939C19.3064 18.4235 19.4028 18.3828 19.5041 18.3804H27.3347C27.4082 18.3811 27.4801 18.4021 27.5421 18.4408C27.6042 18.4795 27.654 18.5345 27.686 18.5996L30.9146 25.5835C30.9684 25.6548 31.0454 25.7058 31.1329 25.728C31.2203 25.7502 31.3129 25.7423 31.3951 25.7055C31.4773 25.6687 31.5442 25.6054 31.5846 25.526C31.625 25.4465 31.6365 25.3559 31.6171 25.2692L28.6787 18.9236C28.6544 18.8657 28.6448 18.8029 28.6506 18.7406C28.6564 18.6782 28.6774 18.6182 28.712 18.5656C28.7465 18.513 28.7934 18.4694 28.8488 18.4385C28.9041 18.4076 28.9663 18.3903 29.0299 18.3881H34.9917C35.0934 18.388 35.1912 18.4265 35.2647 18.4955C35.3382 18.5646 35.3818 18.6588 35.3864 18.7587Z" fill="#219DFF"/>
</svg>
