<svg width="854" height="1139" viewBox="0 0 854 1139" fill="none" xmlns="http://www.w3.org/2000/svg">
<g opacity="0.08">
<rect x="0.734718" y="0.734718" width="142.066" height="142.066" rx="15.669" stroke="#F0F0F0" stroke-width="1.46897"/>
<rect x="142.801" y="0.734718" width="142.066" height="142.066" rx="15.669" stroke="#F0F0F0" stroke-width="1.46897"/>
<rect x="284.867" y="0.734718" width="142.066" height="142.066" rx="15.669" stroke="#F0F0F0" stroke-width="1.46897"/>
<rect x="426.933" y="0.734718" width="142.066" height="142.066" rx="15.669" stroke="#F0F0F0" stroke-width="1.46897"/>
<rect x="569" y="0.734718" width="142.066" height="142.066" rx="15.669" stroke="#F0F0F0" stroke-width="1.46897"/>
<rect x="711.066" y="0.734718" width="142.066" height="142.066" rx="15.669" stroke="#F0F0F0" stroke-width="1.46897"/>
<rect x="0.734718" y="142.801" width="142.066" height="142.066" rx="15.669" stroke="#F0F0F0" stroke-width="1.46897"/>
<rect x="142.801" y="142.801" width="142.066" height="142.066" rx="15.669" stroke="#F0F0F0" stroke-width="1.46897"/>
<rect x="284.867" y="142.801" width="142.066" height="142.066" rx="15.669" stroke="#F0F0F0" stroke-width="1.46897"/>
<rect x="426.933" y="142.801" width="142.066" height="142.066" rx="15.669" stroke="#F0F0F0" stroke-width="1.46897"/>
<rect x="569" y="142.801" width="142.066" height="142.066" rx="15.669" stroke="#F0F0F0" stroke-width="1.46897"/>
<rect x="711.066" y="142.801" width="142.066" height="142.066" rx="15.669" stroke="#F0F0F0" stroke-width="1.46897"/>
<rect x="0.734718" y="284.867" width="142.066" height="142.066" rx="15.669" stroke="#F0F0F0" stroke-width="1.46897"/>
<rect x="142.801" y="284.867" width="142.066" height="142.066" rx="15.669" stroke="#F0F0F0" stroke-width="1.46897"/>
<rect x="284.867" y="284.867" width="142.066" height="142.066" rx="15.669" stroke="#F0F0F0" stroke-width="1.46897"/>
<rect x="426.933" y="284.867" width="142.066" height="142.066" rx="15.669" stroke="#F0F0F0" stroke-width="1.46897"/>
<rect x="569" y="284.867" width="142.066" height="142.066" rx="15.669" stroke="#F0F0F0" stroke-width="1.46897"/>
<rect x="711.066" y="284.867" width="142.066" height="142.066" rx="15.669" stroke="#F0F0F0" stroke-width="1.46897"/>
<rect x="0.734718" y="426.933" width="142.066" height="142.066" rx="15.669" stroke="#F0F0F0" stroke-width="1.46897"/>
<rect x="142.801" y="426.933" width="142.066" height="142.066" rx="15.669" stroke="#F0F0F0" stroke-width="1.46897"/>
<rect x="284.867" y="426.933" width="142.066" height="142.066" rx="15.669" stroke="#F0F0F0" stroke-width="1.46897"/>
<rect x="426.933" y="426.933" width="142.066" height="142.066" rx="15.669" stroke="#F0F0F0" stroke-width="1.46897"/>
<rect x="569" y="426.933" width="142.066" height="142.066" rx="15.669" stroke="#F0F0F0" stroke-width="1.46897"/>
<rect x="711.066" y="426.933" width="142.066" height="142.066" rx="15.669" stroke="#F0F0F0" stroke-width="1.46897"/>
<rect x="0.734718" y="570" width="142.066" height="142.066" rx="15.669" stroke="#F0F0F0" stroke-width="1.46897"/>
<rect x="142.801" y="570" width="142.066" height="142.066" rx="15.669" stroke="#F0F0F0" stroke-width="1.46897"/>
<rect x="284.867" y="570" width="142.066" height="142.066" rx="15.669" stroke="#F0F0F0" stroke-width="1.46897"/>
<rect x="426.933" y="570" width="142.066" height="142.066" rx="15.669" stroke="#F0F0F0" stroke-width="1.46897"/>
<rect x="569" y="570" width="142.066" height="142.066" rx="15.669" stroke="#F0F0F0" stroke-width="1.46897"/>
<rect x="711.066" y="570" width="142.066" height="142.066" rx="15.669" stroke="#F0F0F0" stroke-width="1.46897"/>
<rect x="0.734718" y="712.066" width="142.066" height="142.066" rx="15.669" stroke="#F0F0F0" stroke-width="1.46897"/>
<rect x="142.801" y="712.066" width="142.066" height="142.066" rx="15.669" stroke="#F0F0F0" stroke-width="1.46897"/>
<rect x="284.867" y="712.066" width="142.066" height="142.066" rx="15.669" stroke="#F0F0F0" stroke-width="1.46897"/>
<rect x="426.933" y="712.066" width="142.066" height="142.066" rx="15.669" stroke="#F0F0F0" stroke-width="1.46897"/>
<rect x="569" y="712.066" width="142.066" height="142.066" rx="15.669" stroke="#F0F0F0" stroke-width="1.46897"/>
<rect x="711.066" y="712.066" width="142.066" height="142.066" rx="15.669" stroke="#F0F0F0" stroke-width="1.46897"/>
<rect x="0.734718" y="854.133" width="142.066" height="142.066" rx="15.669" stroke="#F0F0F0" stroke-width="1.46897"/>
<rect x="142.801" y="854.133" width="142.066" height="142.066" rx="15.669" stroke="#F0F0F0" stroke-width="1.46897"/>
<rect x="284.867" y="854.133" width="142.066" height="142.066" rx="15.669" stroke="#F0F0F0" stroke-width="1.46897"/>
<rect x="426.933" y="854.133" width="142.066" height="142.066" rx="15.669" stroke="#F0F0F0" stroke-width="1.46897"/>
<rect x="569" y="854.133" width="142.066" height="142.066" rx="15.669" stroke="#F0F0F0" stroke-width="1.46897"/>
<rect x="711.066" y="854.133" width="142.066" height="142.066" rx="15.669" stroke="#F0F0F0" stroke-width="1.46897"/>
<rect x="0.734718" y="996.199" width="142.066" height="142.066" rx="15.669" stroke="#F0F0F0" stroke-width="1.46897"/>
<rect x="142.801" y="996.199" width="142.066" height="142.066" rx="15.669" stroke="#F0F0F0" stroke-width="1.46897"/>
<rect x="284.867" y="996.199" width="142.066" height="142.066" rx="15.669" stroke="#F0F0F0" stroke-width="1.46897"/>
<rect x="426.933" y="996.199" width="142.066" height="142.066" rx="15.669" stroke="#F0F0F0" stroke-width="1.46897"/>
<rect x="569" y="996.199" width="142.066" height="142.066" rx="15.669" stroke="#F0F0F0" stroke-width="1.46897"/>
<rect x="711.066" y="996.199" width="142.066" height="142.066" rx="15.669" stroke="#F0F0F0" stroke-width="1.46897"/>
</g>
</svg>
