<svg width="87" height="84" viewBox="0 0 87 84" fill="none" xmlns="http://www.w3.org/2000/svg">
<rect width="86.4242" height="84.0001" rx="3.81715" fill="#D7EAFF"/>
<path d="M19.7461 22.4858C19.7461 22.7259 19.8432 22.9562 20.0159 23.126C20.1886 23.2958 20.4228 23.3912 20.6671 23.3912H40.9002C41.1405 23.3911 41.3714 23.4833 41.5434 23.6483C41.7155 23.8132 41.8152 24.0377 41.8212 24.2738V40.2346C41.8152 40.4708 41.7155 40.6953 41.5434 40.8602C41.3714 41.0251 41.1405 41.1174 40.9002 41.1173H4.73936C4.49905 41.1174 4.26823 41.0251 4.09616 40.8602C3.9241 40.6953 3.82442 40.4708 3.81841 40.2346V4.72349C3.81841 4.48338 3.91544 4.25311 4.08815 4.08333C4.26086 3.91355 4.49511 3.81817 4.73936 3.81817H40.8772C41.1215 3.81817 41.3557 3.91355 41.5284 4.08333C41.7011 4.25311 41.7982 4.48338 41.7982 4.72349V20.7205C41.7982 20.9606 41.7011 21.1908 41.5284 21.3606C41.3557 21.5304 41.1215 21.6258 40.8772 21.6258H20.6671C20.4306 21.6255 20.2031 21.7146 20.0316 21.8747C19.8602 22.0349 19.758 22.2537 19.7461 22.4858Z" fill="#040E31"/>
<path d="M19.7461 61.5324C19.7461 61.7725 19.8432 62.0027 20.0159 62.1725C20.1886 62.3423 20.4228 62.4377 20.6671 62.4377H40.9002C41.1405 62.4376 41.3714 62.5299 41.5434 62.6948C41.7155 62.8597 41.8152 63.0842 41.8212 63.3204V79.2992C41.8152 79.5354 41.7155 79.7599 41.5434 79.9248C41.3714 80.0897 41.1405 80.182 40.9002 80.1819H4.73936C4.49905 80.182 4.26823 80.0897 4.09616 79.9248C3.9241 79.7599 3.82442 79.5354 3.81841 79.2992V43.77C3.82442 43.5339 3.9241 43.3094 4.09616 43.1444C4.26823 42.9795 4.49905 42.8873 4.73936 42.8873H40.8772C41.1175 42.8873 41.3483 42.9795 41.5204 43.1444C41.6925 43.3094 41.7921 43.5339 41.7982 43.77V59.767C41.7982 60.0071 41.7011 60.2374 41.5284 60.4071C41.3557 60.5769 41.1215 60.6723 40.8772 60.6723H20.6671C20.4306 60.672 20.2031 60.7612 20.0316 60.9213C19.8602 61.0814 19.758 61.3002 19.7461 61.5324Z" fill="#1C4ED1"/>
<path d="M65.0438 12.903C64.9512 13.119 64.9475 13.3619 65.0334 13.5806C65.1193 13.7992 65.2881 13.9766 65.5043 14.0754L82.0813 21.4809C82.2366 21.5536 82.3681 21.6677 82.4609 21.8101C82.5536 21.9525 82.604 22.1176 82.6062 22.2867V40.2346C82.6063 40.4708 82.5124 40.6977 82.3446 40.8669C82.1769 41.036 81.9485 41.134 81.7083 41.1399H45.5336C45.2934 41.134 45.065 41.036 44.8972 40.8669C44.7295 40.6977 44.6356 40.4708 44.6357 40.2346V35.4228C44.6382 35.2438 44.6947 35.0696 44.798 34.9222C44.9013 34.7747 45.0467 34.6607 45.2159 34.5945L60.4621 28.986C60.6831 28.8998 60.8616 28.733 60.9603 28.5204C61.059 28.3078 61.0702 28.0659 60.9916 27.8453C60.9031 27.6289 60.733 27.4545 60.5168 27.3583C60.3006 27.2622 60.055 27.2518 59.8312 27.3293L45.8467 32.476C45.7084 32.5252 45.5601 32.5411 45.4143 32.5224C45.2684 32.5036 45.1293 32.4508 45.0084 32.3684C44.8876 32.286 44.7886 32.1763 44.7198 32.0485C44.6509 31.9208 44.6142 31.7787 44.6126 31.6341V4.72349C44.6126 4.48725 44.7064 4.26034 44.8742 4.0912C45.042 3.92205 45.2703 3.82408 45.5106 3.81817H81.653C81.8933 3.82408 82.1216 3.92205 82.2894 4.0912C82.4571 4.26034 82.551 4.48725 82.5509 4.72349V18.3983C82.5458 18.5443 82.5048 18.6869 82.4314 18.8139C82.3581 18.9409 82.2545 19.0485 82.1297 19.1277C82.0048 19.2068 81.8624 19.2551 81.7144 19.2684C81.5665 19.2817 81.4174 19.2596 81.28 19.2041L66.2548 12.464C66.0347 12.3665 65.7845 12.3579 65.558 12.44C65.3315 12.5222 65.1468 12.6884 65.0438 12.903Z" fill="#16186E"/>
<path d="M82.5694 43.77V79.2992C82.5634 79.5354 82.4637 79.7599 82.2916 79.9248C82.1196 80.0897 81.8887 80.182 81.6484 80.1819H58.9794V66.068C58.9794 65.9502 58.9555 65.8335 58.9089 65.7249C58.8623 65.6163 58.7941 65.518 58.7083 65.4357C58.6225 65.3534 58.5207 65.2889 58.4091 65.2459C58.2975 65.2029 58.1783 65.1823 58.0584 65.1853C57.8221 65.1911 57.5971 65.2859 57.43 65.4502C57.2628 65.6145 57.1663 65.8357 57.1605 66.068V80.1819H45.5336C45.2933 80.182 45.0625 80.0897 44.8904 79.9248C44.7183 79.7599 44.6187 79.5354 44.6126 79.2992V43.77C44.6185 43.5377 44.715 43.3165 44.8821 43.1522C45.0492 42.9879 45.2743 42.8931 45.5106 42.8873H63.7821C63.9536 42.8891 64.1212 42.9379 64.2661 43.0283C64.4109 43.1187 64.5271 43.247 64.6017 43.3988L72.1351 59.6946C72.2606 59.861 72.4404 59.98 72.6444 60.0318C72.8485 60.0837 73.0644 60.0651 73.2563 59.9793C73.4481 59.8935 73.6042 59.7456 73.6984 59.5604C73.7927 59.3751 73.8195 59.1636 73.7743 58.9613L66.9179 44.1548C66.8614 44.0197 66.8389 43.8732 66.8524 43.7278C66.866 43.5823 66.9151 43.4423 66.9956 43.3195C67.0761 43.1968 67.1857 43.095 67.3149 43.0229C67.4441 42.9508 67.5891 42.9105 67.7376 42.9054H81.6484C81.8857 42.9052 82.1138 42.995 82.2854 43.156C82.457 43.3171 82.5587 43.537 82.5694 43.77Z" fill="#219DFF"/>
</svg>
