<svg width="34" height="33" viewBox="0 0 34 33" fill="none" xmlns="http://www.w3.org/2000/svg">
<path d="M6.82616 8.00042C6.82616 8.10332 6.86775 8.20201 6.94177 8.27477C7.01578 8.34754 7.11618 8.38841 7.22085 8.38841H15.8922C15.9952 8.38838 16.0941 8.42793 16.1679 8.4986C16.2416 8.56928 16.2843 8.6655 16.2869 8.76671V15.607C16.2843 15.7082 16.2416 15.8045 16.1679 15.8751C16.0941 15.9458 15.9952 15.9854 15.8922 15.9853H0.39469C0.291699 15.9854 0.192776 15.9458 0.119035 15.8751C0.045293 15.8045 0.00257477 15.7082 0 15.607V0.387993C0 0.285091 0.041583 0.186403 0.115602 0.11364C0.18962 0.0408775 0.290012 0 0.39469 0H15.8823C15.987 0 16.0874 0.0408775 16.1614 0.11364C16.2354 0.186403 16.277 0.285091 16.277 0.387993V7.24383C16.277 7.34674 16.2354 7.44542 16.1614 7.51819C16.0874 7.59095 15.987 7.63183 15.8823 7.63183H7.22085C7.11951 7.6317 7.02199 7.66991 6.94852 7.73853C6.87504 7.80714 6.83123 7.90092 6.82616 8.00042Z" fill="#040E31"/>
<path d="M6.82616 24.7349C6.82616 24.8378 6.86775 24.9365 6.94177 25.0092C7.01578 25.082 7.11618 25.1229 7.22085 25.1229H15.8922C15.9952 25.1228 16.0941 25.1624 16.1679 25.2331C16.2416 25.3037 16.2843 25.3999 16.2869 25.5012V32.3492C16.2843 32.4504 16.2416 32.5467 16.1679 32.6173C16.0941 32.688 15.9952 32.7276 15.8922 32.7275H0.39469C0.291699 32.7276 0.192776 32.688 0.119035 32.6173C0.045293 32.5467 0.00257477 32.4504 0 32.3492V17.1224C0.00257477 17.0212 0.045293 16.925 0.119035 16.8543C0.192776 16.7837 0.291699 16.7441 0.39469 16.7441H15.8823C15.9853 16.7441 16.0842 16.7837 16.158 16.8543C16.2317 16.925 16.2744 17.0212 16.277 17.1224V23.9783C16.277 24.0812 16.2354 24.1799 16.1614 24.2526C16.0874 24.3254 15.987 24.3663 15.8823 24.3663H7.22085C7.11951 24.3661 7.02199 24.4044 6.94852 24.473C6.87504 24.5416 6.83123 24.6354 6.82616 24.7349Z" fill="#1C4ED1"/>
<path d="M26.2391 3.89376C26.1994 3.98633 26.1978 4.09042 26.2346 4.18413C26.2715 4.27784 26.3438 4.35386 26.4365 4.39621L33.5409 7.57C33.6074 7.60115 33.6638 7.65002 33.7036 7.71105C33.7433 7.77208 33.7649 7.84284 33.7659 7.91531V15.6073C33.7659 15.7085 33.7257 15.8058 33.6538 15.8783C33.5819 15.9507 33.484 15.9927 33.381 15.9953H17.8776C17.7746 15.9927 17.6768 15.9507 17.6049 15.8783C17.533 15.8058 17.4927 15.7085 17.4928 15.6073V13.5451C17.4939 13.4684 17.5181 13.3937 17.5623 13.3305C17.6066 13.2673 17.6689 13.2185 17.7414 13.1901L24.2755 10.7865C24.3702 10.7495 24.4467 10.678 24.489 10.5869C24.5313 10.4958 24.5361 10.3921 24.5025 10.2976C24.4645 10.2048 24.3916 10.1301 24.299 10.0889C24.2063 10.0477 24.1011 10.0432 24.0052 10.0764L18.0118 12.2822C17.9525 12.3032 17.889 12.3101 17.8265 12.302C17.764 12.294 17.7043 12.2714 17.6525 12.2361C17.6008 12.2007 17.5583 12.1537 17.5288 12.099C17.4993 12.0442 17.4836 11.9833 17.4829 11.9213V0.388238C17.4829 0.286994 17.5231 0.189746 17.595 0.117256C17.6669 0.0447657 17.7648 0.00277522 17.8677 0.000244141H33.3573C33.4603 0.00277522 33.5582 0.0447657 33.6301 0.117256C33.702 0.189746 33.7422 0.286994 33.7422 0.388238V6.24888C33.74 6.31143 33.7224 6.37253 33.6909 6.42696C33.6595 6.48139 33.6151 6.52754 33.5616 6.56146C33.5081 6.59539 33.4471 6.61608 33.3837 6.62178C33.3202 6.62748 33.2564 6.61801 33.1975 6.59419L26.7581 3.70558C26.6638 3.66381 26.5565 3.66013 26.4595 3.69533C26.3624 3.73052 26.2833 3.80178 26.2391 3.89376Z" fill="#16186E"/>
<path d="M33.7501 17.1224V32.3492C33.7475 32.4504 33.7048 32.5467 33.631 32.6173C33.5573 32.688 33.4584 32.7276 33.3554 32.7275H23.6401V26.6787C23.6401 26.6282 23.6298 26.5782 23.6099 26.5317C23.5899 26.4851 23.5607 26.443 23.5239 26.4077C23.4871 26.3725 23.4435 26.3448 23.3957 26.3264C23.3479 26.308 23.2967 26.2991 23.2454 26.3004C23.1441 26.3029 23.0477 26.3435 22.976 26.4139C22.9044 26.4844 22.8631 26.5792 22.8606 26.6787V32.7275H17.8776C17.7746 32.7276 17.6757 32.688 17.6019 32.6173C17.5282 32.5467 17.4855 32.4504 17.4829 32.3492V17.1224C17.4854 17.0229 17.5268 16.9281 17.5984 16.8577C17.67 16.7873 17.7665 16.7466 17.8677 16.7441H25.6984C25.7719 16.7449 25.8437 16.7658 25.9058 16.8046C25.9679 16.8433 26.0177 16.8983 26.0497 16.9634L29.2782 23.9472C29.332 24.0186 29.4091 24.0696 29.4965 24.0918C29.584 24.114 29.6765 24.1061 29.7587 24.0693C29.8409 24.0325 29.9078 23.9691 29.9482 23.8897C29.9887 23.8103 30.0001 23.7197 29.9808 23.633L27.0423 17.2873C27.0181 17.2295 27.0084 17.1667 27.0142 17.1043C27.02 17.042 27.0411 16.982 27.0756 16.9294C27.1101 16.8768 27.1571 16.8332 27.2124 16.8023C27.2678 16.7714 27.3299 16.7541 27.3936 16.7519H33.3554C33.457 16.7518 33.5548 16.7903 33.6284 16.8593C33.7019 16.9283 33.7455 17.0226 33.7501 17.1224Z" fill="#219DFF"/>
</svg>
