<svg width="20" height="20" viewBox="0 0 20 20" fill="none" xmlns="http://www.w3.org/2000/svg">
<path d="M11.6043 17.5H8.39633C4.53763 17.5 2.60829 17.5 1.8973 16.2449C1.1863 14.9899 2.17313 13.3262 4.14678 9.99875L5.7508 7.29444C7.64665 4.09815 8.59458 2.5 10.0003 2.5C11.4061 2.5 12.354 4.09814 14.2498 7.29443L15.8539 9.99875C17.8275 13.3262 18.8143 14.9899 18.1033 16.2449C17.3923 17.5 15.463 17.5 11.6043 17.5Z" stroke="#DC2626" stroke-width="1.25" stroke-linecap="round" stroke-linejoin="round"/>
<path d="M10 14.1663V10.833" stroke="#DC2626" stroke-width="1.25" stroke-linecap="round" stroke-linejoin="round"/>
<path d="M10.0003 7.70833H10.1045M10.2087 7.70833C10.2087 7.59327 10.1154 7.5 10.0003 7.5C9.88524 7.5 9.79199 7.59327 9.79199 7.70833C9.79199 7.82339 9.88524 7.91667 10.0003 7.91667C10.1154 7.91667 10.2087 7.82339 10.2087 7.70833Z" stroke="#DC2626" stroke-width="1.25" stroke-linecap="round" stroke-linejoin="round"/>
</svg>
