<svg width="24" height="24" viewBox="0 0 24 24" fill="none" xmlns="http://www.w3.org/2000/svg">
<path d="M8.56854 12L7.71068 11.1421C6.76311 10.1946 6.76311 8.65825 7.71068 7.71068C8.65825 6.76311 10.1946 6.76311 11.1421 7.71068L16.2893 12.8579C17.2369 13.8054 17.2369 15.3418 16.2893 16.2893C15.3418 17.2369 13.8054 17.2369 12.8579 16.2893L10.9277 14.3591C9.51688 12.9483 11.5463 11.0463 13 12.5L14 13.5" stroke="#1C4ED1" stroke-width="1.5" stroke-linecap="round" stroke-linejoin="round"/>
<path d="M12 22C17.5228 22 22 17.5228 22 12C22 6.47715 17.5228 2 12 2C6.47715 2 2 6.47715 2 12C2 17.5228 6.47715 22 12 22Z" stroke="#1C4ED1" stroke-width="1.5"/>
</svg>
