<svg width="20" height="20" viewBox="0 0 20 20" fill="none" xmlns="http://www.w3.org/2000/svg">
<path d="M4.44477 2.50001C6.49515 2.49714 8.47408 3.23924 10.0003 4.58333V17.5C8.47408 16.1559 6.49515 15.4138 4.44477 15.4167C3.14309 15.4167 2.49226 15.4167 2.20471 15.2327C2.03208 15.1222 1.96154 15.0516 1.85104 14.8789C1.66699 14.5914 1.66699 14.0784 1.66699 13.0524V5.33602C1.66699 4.14619 1.66699 3.55128 2.12428 3.06905C2.58156 2.58682 3.04968 2.56193 3.98593 2.51217C4.13783 2.50409 4.29081 2.50001 4.44477 2.50001Z" stroke="#4B5563" stroke-width="1.25" stroke-linecap="round" stroke-linejoin="round"/>
<path d="M15.5556 2.50001C13.5052 2.49714 11.5263 3.23924 10 4.58333V17.5C11.5263 16.1559 13.5052 15.4138 15.5556 15.4167C16.8573 15.4167 17.5081 15.4167 17.7956 15.2327C17.9682 15.1222 18.0388 15.0516 18.1493 14.8789C18.3333 14.5914 18.3333 14.0784 18.3333 13.0524V5.33602C18.3333 4.14619 18.3333 3.55128 17.8761 3.06905C17.4187 2.58682 16.9507 2.56193 16.0144 2.51217C15.8625 2.50409 15.7095 2.50001 15.5556 2.50001Z" stroke="#4B5563" stroke-width="1.25" stroke-linecap="round" stroke-linejoin="round"/>
<path d="M15.8333 6.10504C15.7411 6.10209 15.6485 6.10059 15.5556 6.10059C15.0873 6.09994 14.6229 6.13814 14.1667 6.21346M15.8333 9.17258C15.7411 9.16966 15.6485 9.16816 15.5556 9.16816C14.5008 9.16666 13.465 9.36233 12.5 9.73566M15.8333 12.0845C15.7411 12.0816 15.6485 12.0801 15.5556 12.0801C14.5008 12.0786 13.465 12.2742 12.5 12.6476" stroke="#4B5563" stroke-width="1.25" stroke-linecap="round" stroke-linejoin="round"/>
<path d="M4.16699 6.10504C4.25922 6.10209 4.35182 6.10059 4.44477 6.10059C4.91298 6.09994 5.37745 6.13814 5.83366 6.21346M4.16699 9.17258C4.25922 9.16966 4.35182 9.16816 4.44477 9.16816C5.49949 9.16666 6.53531 9.36233 7.50033 9.73566M4.16699 12.0845C4.25922 12.0816 4.35182 12.0801 4.44477 12.0801C5.49949 12.0786 6.53531 12.2742 7.50033 12.6476" stroke="#4B5563" stroke-width="1.25" stroke-linecap="round" stroke-linejoin="round"/>
</svg>
