<svg width="16" height="16" viewBox="0 0 16 16" fill="none" xmlns="http://www.w3.org/2000/svg">
<path d="M10.6663 1.33301V3.99967M5.33301 1.33301V3.99967" stroke="#9CA3AF" stroke-width="1.2" stroke-linecap="round" stroke-linejoin="round"/>
<path d="M8.66667 2.66699H7.33333C4.81917 2.66699 3.5621 2.66699 2.78105 3.44804C2 4.22909 2 5.48617 2 8.00033V9.33366C2 11.8478 2 13.1049 2.78105 13.8859C3.5621 14.667 4.81917 14.667 7.33333 14.667H8.66667C11.1808 14.667 12.4379 14.667 13.2189 13.8859C14 13.1049 14 11.8478 14 9.33366V8.00033C14 5.48617 14 4.22909 13.2189 3.44804C12.4379 2.66699 11.1808 2.66699 8.66667 2.66699Z" stroke="#9CA3AF" stroke-width="1.2" stroke-linecap="round" stroke-linejoin="round"/>
<path d="M2 6.66699H14" stroke="#9CA3AF" stroke-width="1.2" stroke-linecap="round" stroke-linejoin="round"/>
<path d="M7.33301 9.33301H10.6663M5.33301 9.33301H5.33899M8.66634 11.9997H5.33301M10.6663 11.9997H10.6603" stroke="#9CA3AF" stroke-width="1.2" stroke-linecap="round" stroke-linejoin="round"/>
</svg>
