<svg width="20" height="20" viewBox="0 0 20 20" fill="none" xmlns="http://www.w3.org/2000/svg">
<path d="M4.16699 12.5C4.16699 9.27829 6.77867 6.66663 10.0003 6.66663C13.222 6.66663 15.8337 9.27829 15.8337 12.5C15.8337 15.7216 13.222 18.3333 10.0003 18.3333C6.77867 18.3333 4.16699 15.7216 4.16699 12.5Z" stroke="#1C4ED1" stroke-width="1.25"/>
<path d="M13.75 7.91663V5.41663C13.75 3.34556 12.0711 1.66663 10 1.66663C7.92893 1.66663 6.25 3.34556 6.25 5.41663V7.91663" stroke="#1C4ED1" stroke-width="1.25" stroke-linecap="round"/>
<path d="M10.1045 12.5H10.0003M10.2087 12.5C10.2087 12.615 10.1154 12.7083 10.0003 12.7083C9.88524 12.7083 9.79199 12.615 9.79199 12.5C9.79199 12.3849 9.88524 12.2916 10.0003 12.2916C10.1154 12.2916 10.2087 12.3849 10.2087 12.5Z" stroke="#1C4ED1" stroke-width="1.25" stroke-linecap="round" stroke-linejoin="round"/>
</svg>
