<svg width="20" height="20" viewBox="0 0 20 20" fill="none" xmlns="http://www.w3.org/2000/svg">
<path d="M8.125 2.5H4.79167C4.21018 2.5 3.91944 2.5 3.68286 2.57177C3.15019 2.73335 2.73335 3.15019 2.57177 3.68286C2.5 3.91944 2.5 4.21018 2.5 4.79167C2.5 5.37315 2.5 5.66389 2.57177 5.90048C2.73335 6.43314 3.15019 6.84998 3.68286 7.01157C3.91944 7.08333 4.21018 7.08333 4.79167 7.08333H8.125C8.7065 7.08333 8.99725 7.08333 9.23383 7.01157C9.7665 6.84998 10.1833 6.43314 10.3449 5.90048C10.4167 5.66389 10.4167 5.37315 10.4167 4.79167C10.4167 4.21018 10.4167 3.91944 10.3449 3.68286C10.1833 3.15019 9.7665 2.73335 9.23383 2.57177C8.99725 2.5 8.7065 2.5 8.125 2.5Z" stroke="#4B5563" stroke-width="1.25" stroke-linejoin="round"/>
<path d="M17.5003 8.125V4.79167C17.5003 4.21018 17.5003 3.91944 17.4286 3.68286C17.267 3.15019 16.8502 2.73335 16.3175 2.57177C16.0809 2.5 15.7902 2.5 15.2087 2.5C14.6272 2.5 14.3364 2.5 14.0998 2.57177C13.5672 2.73335 13.1503 3.15019 12.9887 3.68286C12.917 3.91944 12.917 4.21018 12.917 4.79167V8.125C12.917 8.7065 12.917 8.99725 12.9887 9.23383C13.1503 9.7665 13.5672 10.1833 14.0998 10.3449C14.3364 10.4167 14.6272 10.4167 15.2087 10.4167C15.7902 10.4167 16.0809 10.4167 16.3175 10.3449C16.8502 10.1833 17.267 9.7665 17.4286 9.23383C17.5003 8.99725 17.5003 8.7065 17.5003 8.125Z" stroke="#4B5563" stroke-width="1.25" stroke-linejoin="round"/>
<path d="M14.0998 17.4286C14.3364 17.5003 14.6272 17.5003 15.2087 17.5003C15.7902 17.5003 16.0809 17.5003 16.3175 17.4286C16.8502 17.267 17.267 16.8502 17.4286 16.3175C17.5003 16.0809 17.5003 15.7902 17.5003 15.2087C17.5003 14.6272 17.5003 14.3364 17.4286 14.0998C17.267 13.5672 16.8502 13.1503 16.3175 12.9887C16.0809 12.917 15.7902 12.917 15.2087 12.917C14.6272 12.917 14.3364 12.917 14.0998 12.9887C13.5672 13.1503 13.1503 13.5672 12.9887 14.0998C12.917 14.3364 12.917 14.6272 12.917 15.2087C12.917 15.7902 12.917 16.0809 12.9887 16.3175C13.1503 16.8502 13.5672 17.267 14.0998 17.4286Z" stroke="#4B5563" stroke-width="1.25" stroke-linejoin="round"/>
<path d="M7.08333 9.58301H5.83333C4.26198 9.58301 3.47631 9.58301 2.98816 10.0712C2.5 10.5593 2.5 11.345 2.5 12.9163V14.1663C2.5 15.7377 2.5 16.5233 2.98816 17.0115C3.47631 17.4997 4.26198 17.4997 5.83333 17.4997H7.08333C8.65467 17.4997 9.44033 17.4997 9.9285 17.0115C10.4167 16.5233 10.4167 15.7377 10.4167 14.1663V12.9163C10.4167 11.345 10.4167 10.5593 9.9285 10.0712C9.44033 9.58301 8.65467 9.58301 7.08333 9.58301Z" stroke="#4B5563" stroke-width="1.25" stroke-linejoin="round"/>
</svg>
