<svg width="32" height="32" viewBox="0 0 32 32" fill="none" xmlns="http://www.w3.org/2000/svg">
<path d="M29.0743 13.3886H28.0003V13.3333H16.0003V18.6666H23.5357C22.4363 21.7713 19.4823 24 16.0003 24C11.5823 24 8.00033 20.418 8.00033 16C8.00033 11.582 11.5823 7.99996 16.0003 7.99996C18.0397 7.99996 19.895 8.76929 21.3077 10.026L25.079 6.25463C22.6977 4.03529 19.5123 2.66663 16.0003 2.66663C8.63699 2.66663 2.66699 8.63663 2.66699 16C2.66699 23.3633 8.63699 29.3333 16.0003 29.3333C23.3637 29.3333 29.3337 23.3633 29.3337 16C29.3337 15.106 29.2417 14.2333 29.0743 13.3886Z" fill="#FFC107"/>
<path d="M4.20312 9.79396L8.58379 13.0066C9.76912 10.072 12.6398 7.99996 15.9991 7.99996C18.0385 7.99996 19.8938 8.76929 21.3065 10.026L25.0778 6.25463C22.6965 4.03529 19.5111 2.66663 15.9991 2.66663C10.8778 2.66663 6.43646 5.55796 4.20312 9.79396Z" fill="#FF3D00"/>
<path d="M15.9999 29.3334C19.4439 29.3334 22.5732 28.0154 24.9392 25.8721L20.8125 22.3801C19.4291 23.4328 17.7383 24.002 15.9999 24.0001C12.5319 24.0001 9.58722 21.7888 8.47788 18.7028L4.12988 22.0528C6.33655 26.3708 10.8179 29.3334 15.9999 29.3334Z" fill="#4CAF50"/>
<path d="M29.074 13.3887H28V13.3334H16V18.6667H23.5353C23.0095 20.1443 22.0622 21.4355 20.8107 22.3807L20.8127 22.3794L24.9393 25.8714C24.6473 26.1367 29.3333 22.6667 29.3333 16C29.3333 15.106 29.2413 14.2334 29.074 13.3887Z" fill="#1976D2"/>
</svg>
