<svg width="32" height="32" viewBox="0 0 32 32" fill="none" xmlns="http://www.w3.org/2000/svg">
<path d="M15.9993 6.66663L17.4712 4.60608C18.0192 3.83877 18.2933 3.45512 18.1203 3.09877C17.9472 2.74241 17.5075 2.722 16.6279 2.68119C16.4196 2.67152 16.21 2.66663 15.9993 2.66663C8.63562 2.66663 2.66602 8.63616 2.66602 16C2.66602 23.3637 8.63562 29.3333 15.9993 29.3333C23.3632 29.3333 29.3327 23.3637 29.3327 16C29.3327 11.6378 27.2379 7.76487 23.9993 5.33232" stroke="white" stroke-width="2" stroke-linecap="round" stroke-linejoin="round"/>
<path d="M10.6562 14.672C11.3602 14.112 12.0003 13.1886 12.4003 13.36C12.8003 13.5315 12.6723 14.096 12.6723 14.976C12.6723 15.856 12.6723 19.5796 12.6723 21.344" stroke="white" stroke-width="2" stroke-linecap="round"/>
<path d="M21.3362 16.8C21.3362 14.96 21.4243 14.464 21.0723 13.872C20.7203 13.28 19.8402 13.3312 18.9602 13.3312C18.0802 13.3312 17.4403 13.28 17.0163 13.76C16.4963 14.32 16.7203 15.36 16.6562 16.8C16.8003 18.72 16.4082 20.24 17.0082 20.88C17.4403 21.408 18.2071 21.328 19.1203 21.344C20.0268 21.3329 20.5763 21.376 21.0243 20.864C21.5203 20.416 21.2802 18.64 21.3362 16.8Z" stroke="white" stroke-width="2" stroke-linecap="round"/>
</svg>
