<svg width="32" height="31" viewBox="0 0 32 31" fill="none" xmlns="http://www.w3.org/2000/svg">
<path d="M6.44693 7.55595C6.44693 7.65314 6.4862 7.74634 6.55611 7.81506C6.62602 7.88378 6.72083 7.92239 6.81969 7.92239H15.0093C15.1066 7.92236 15.2 7.95971 15.2696 8.02646C15.3393 8.09321 15.3796 8.18408 15.3821 8.27967V14.74C15.3796 14.8356 15.3393 14.9264 15.2696 14.9932C15.2 15.0599 15.1066 15.0973 15.0093 15.0973H0.372763C0.275494 15.0973 0.182066 15.0599 0.112422 14.9932C0.0427768 14.9264 0.00243173 14.8356 0 14.74V0.366438C0 0.269253 0.0392728 0.176047 0.109179 0.107327C0.179086 0.0386065 0.2739 0 0.372763 0H15C15.0988 0 15.1936 0.0386065 15.2636 0.107327C15.3335 0.176047 15.3727 0.269253 15.3727 0.366438V6.8414C15.3727 6.93858 15.3335 7.03179 15.2636 7.10051C15.1936 7.16923 15.0988 7.20784 15 7.20784H6.81969C6.72398 7.20772 6.63188 7.2438 6.56249 7.30861C6.49309 7.37341 6.45172 7.46198 6.44693 7.55595Z" fill="#040E31"/>
<path d="M6.44693 23.3603C6.44693 23.4575 6.4862 23.5507 6.55611 23.6194C6.62602 23.6881 6.72083 23.7267 6.81969 23.7267H15.0093C15.1066 23.7267 15.2 23.764 15.2696 23.8308C15.3393 23.8975 15.3796 23.9884 15.3821 24.084V30.5516C15.3796 30.6472 15.3393 30.7381 15.2696 30.8048C15.2 30.8716 15.1066 30.9089 15.0093 30.9089H0.372763C0.275494 30.9089 0.182066 30.8716 0.112422 30.8048C0.0427768 30.7381 0.00243173 30.6472 0 30.5516V16.1708C0.00243173 16.0752 0.0427768 15.9843 0.112422 15.9175C0.182066 15.8508 0.275494 15.8134 0.372763 15.8135H15C15.0972 15.8134 15.1907 15.8508 15.2603 15.9175C15.33 15.9843 15.3703 16.0752 15.3727 16.1708V22.6457C15.3727 22.7429 15.3335 22.8361 15.2636 22.9048C15.1936 22.9735 15.0988 23.0122 15 23.0122H6.81969C6.72398 23.012 6.63188 23.0481 6.56249 23.1129C6.49309 23.1777 6.45172 23.2663 6.44693 23.3603Z" fill="#1C4ED1"/>
<path d="M24.7824 3.67721C24.745 3.76464 24.7435 3.86294 24.7782 3.95144C24.813 4.03995 24.8813 4.11175 24.9688 4.15175L31.6786 7.14921C31.7414 7.17864 31.7946 7.22478 31.8322 7.28242C31.8698 7.34007 31.8901 7.4069 31.891 7.47534V14.74C31.8911 14.8356 31.8531 14.9274 31.7852 14.9959C31.7173 15.0644 31.6248 15.104 31.5276 15.1064H16.8855C16.7882 15.104 16.6958 15.0644 16.6279 14.9959C16.56 14.9274 16.522 14.8356 16.522 14.74V12.7924C16.523 12.7199 16.5459 12.6494 16.5877 12.5897C16.6295 12.53 16.6884 12.4839 16.7569 12.4571L22.9279 10.187C23.0174 10.1521 23.0896 10.0846 23.1296 9.9985C23.1695 9.91245 23.1741 9.81455 23.1423 9.72527C23.1064 9.63768 23.0376 9.56707 22.9501 9.52816C22.8626 9.48924 22.7632 9.48503 22.6726 9.5164L17.0122 11.5996C16.9562 11.6195 16.8962 11.6259 16.8372 11.6184C16.7781 11.6108 16.7218 11.5894 16.6729 11.556C16.624 11.5227 16.5839 11.4783 16.5561 11.4266C16.5282 11.3749 16.5133 11.3173 16.5127 11.2588V0.366438C16.5127 0.270819 16.5507 0.178974 16.6186 0.110511C16.6865 0.0420482 16.7789 0.00239047 16.8761 0H31.5052C31.6025 0.00239047 31.6949 0.0420482 31.7628 0.110511C31.8307 0.178974 31.8687 0.270819 31.8687 0.366438V5.90149C31.8666 5.96056 31.85 6.01827 31.8203 6.06968C31.7906 6.12108 31.7487 6.16467 31.6982 6.19671C31.6476 6.22874 31.5899 6.24829 31.5301 6.25367C31.4702 6.25906 31.4099 6.25011 31.3542 6.22761L25.2726 3.49948C25.1835 3.46004 25.0822 3.45656 24.9906 3.4898C24.8989 3.52304 24.8241 3.59034 24.7824 3.67721Z" fill="#16186E"/>
<path d="M31.8761 16.1708V30.5516C31.8737 30.6472 31.8333 30.7381 31.7637 30.8048C31.6941 30.8716 31.6006 30.9089 31.5034 30.9089H22.3278V25.1961C22.3278 25.1484 22.3181 25.1012 22.2993 25.0573C22.2804 25.0133 22.2528 24.9735 22.2181 24.9402C22.1833 24.9069 22.1422 24.8808 22.097 24.8634C22.0518 24.846 22.0035 24.8376 21.955 24.8389C21.8594 24.8412 21.7683 24.8796 21.7007 24.9461C21.633 25.0126 21.594 25.1021 21.5916 25.1961V30.9089H16.8855C16.7882 30.9089 16.6948 30.8716 16.6251 30.8048C16.5555 30.7381 16.5151 30.6472 16.5127 30.5516V16.1708C16.5151 16.0767 16.5541 15.9872 16.6218 15.9207C16.6894 15.8542 16.7805 15.8158 16.8761 15.8135H24.2718C24.3412 15.8142 24.409 15.834 24.4676 15.8705C24.5263 15.9071 24.5733 15.9591 24.6035 16.0205L27.6527 22.6164C27.7035 22.6838 27.7763 22.7319 27.8589 22.7529C27.9415 22.7739 28.0289 22.7664 28.1065 22.7317C28.1842 22.6969 28.2473 22.6371 28.2855 22.5621C28.3237 22.4871 28.3345 22.4015 28.3162 22.3196L25.541 16.3265C25.5181 16.2718 25.509 16.2125 25.5145 16.1537C25.52 16.0948 25.5399 16.0381 25.5725 15.9884C25.605 15.9387 25.6494 15.8975 25.7017 15.8684C25.754 15.8392 25.8127 15.8229 25.8728 15.8208H31.5034C31.5994 15.8207 31.6917 15.857 31.7612 15.9222C31.8306 15.9874 31.8718 16.0765 31.8761 16.1708Z" fill="#219DFF"/>
</svg>
