<svg width="32" height="32" viewBox="0 0 32 32" fill="none" xmlns="http://www.w3.org/2000/svg">
<path d="M24.9474 26C23.8408 27.6533 22.6674 29.2666 20.8808 29.2933C19.0941 29.3333 18.5208 28.24 16.4941 28.24C14.4541 28.24 13.8274 29.2666 12.1341 29.3333C10.3874 29.4 9.06744 27.5733 7.94744 25.96C5.66744 22.6666 3.92077 16.6 6.26744 12.52C7.42744 10.4933 9.50744 9.21329 11.7608 9.17329C13.4674 9.14663 15.0941 10.3333 16.1474 10.3333C17.1874 10.3333 19.1608 8.90663 21.2274 9.11996C22.0941 9.15996 24.5208 9.46663 26.0808 11.76C25.9608 11.84 23.1874 13.4666 23.2141 16.84C23.2541 20.8666 26.7474 22.2133 26.7874 22.2266C26.7474 22.32 26.2274 24.1466 24.9474 26ZM17.3341 4.66663C18.3074 3.55996 19.9208 2.71996 21.2541 2.66663C21.4274 4.22663 20.8008 5.79996 19.8674 6.91996C18.9474 8.05329 17.4274 8.93329 15.9341 8.81329C15.7341 7.27996 16.4808 5.67996 17.3341 4.66663Z" fill="black"/>
</svg>
