<svg width="20" height="20" viewBox="0 0 20 20" fill="none" xmlns="http://www.w3.org/2000/svg">
<path d="M1.66699 3.75H7.29813C7.96117 3.75 8.59708 4.01339 9.06591 4.48223L11.667 7.08333" stroke="#4B5563" stroke-width="1.25" stroke-linecap="round" stroke-linejoin="round"/>
<path d="M4.16699 11.25H1.66699" stroke="#4B5563" stroke-width="1.25" stroke-linecap="round" stroke-linejoin="round"/>
<path d="M7.08366 6.25L8.75033 7.91667C9.21058 8.37692 9.21058 9.12308 8.75033 9.58333C8.29009 10.0436 7.5439 10.0436 7.08366 9.58333L5.83366 8.33333C5.11642 9.05058 3.98092 9.13125 3.16944 8.52267L2.91699 8.33333" stroke="#4B5563" stroke-width="1.25" stroke-linecap="round" stroke-linejoin="round"/>
<path d="M4.16699 9.16634V12.9163C4.16699 14.4877 4.16699 15.2733 4.65515 15.7615C5.1433 16.2497 5.92898 16.2497 7.50033 16.2497H15.0003C16.5717 16.2497 17.3573 16.2497 17.8455 15.7615C18.3337 15.2733 18.3337 14.4877 18.3337 12.9163V10.4163C18.3337 8.84501 18.3337 8.05932 17.8455 7.57117C17.3573 7.08301 16.5717 7.08301 15.0003 7.08301H7.91699" stroke="#4B5563" stroke-width="1.25" stroke-linecap="round" stroke-linejoin="round"/>
<path d="M12.7087 11.6663C12.7087 12.4718 12.0557 13.1247 11.2503 13.1247C10.4449 13.1247 9.79199 12.4718 9.79199 11.6663C9.79199 10.8609 10.4449 10.208 11.2503 10.208C12.0557 10.208 12.7087 10.8609 12.7087 11.6663Z" stroke="#4B5563" stroke-width="1.25" stroke-linecap="round" stroke-linejoin="round"/>
</svg>
