<svg width="20" height="20" viewBox="0 0 20 20" fill="none" xmlns="http://www.w3.org/2000/svg">
<path d="M10.0003 18.3337C14.6027 18.3337 18.3337 14.6027 18.3337 10.0003C18.3337 5.39795 14.6027 1.66699 10.0003 1.66699C5.39795 1.66699 1.66699 5.39795 1.66699 10.0003C1.66699 14.6027 5.39795 18.3337 10.0003 18.3337Z" stroke="#4B5563" stroke-width="1.25" stroke-linecap="round" stroke-linejoin="round"/>
<path d="M10 5C10.8777 5 11.74 5.23103 12.5 5.66988C13.2601 6.10872 13.8913 6.7399 14.3302 7.5C14.769 8.2601 15 9.12233 15 10C15 10.8777 14.769 11.7399 14.3302 12.5C13.8913 13.2601 13.2601 13.8912 12.5 14.3302C11.74 14.769 10.8777 15 10 15C9.12238 15 8.26014 14.769 7.50005 14.3302C6.73995 13.8912 6.10876 13.2601 5.66992 12.5L10 10V5Z" stroke="#4B5563" stroke-width="1.25" stroke-linecap="round" stroke-linejoin="round"/>
</svg>
