<svg width="24" height="24" viewBox="0 0 24 24" fill="none" xmlns="http://www.w3.org/2000/svg">
<path d="M15.9338 15.9338C16.3018 15.5659 16.8837 15.5432 17.2784 15.8652L17.355 15.9338L21.7165 20.2954L21.7862 20.3719C22.1078 20.7667 22.0843 21.3487 21.7165 21.7165C21.3487 22.0843 20.7667 22.1078 20.3719 21.7862L20.2954 21.7165L15.9338 17.355L15.8652 17.2784C15.5432 16.8837 15.5659 16.3018 15.9338 15.9338Z" fill="#9CA3AF"/>
<path d="M18.0302 10.9952C18.0302 7.10988 14.8805 3.9602 10.9952 3.9602C7.10988 3.9602 3.9602 7.10988 3.9602 10.9952C3.9602 14.8805 7.10988 18.0302 10.9952 18.0302C14.8805 18.0302 18.0302 14.8805 18.0302 10.9952ZM20.0402 10.9952C20.0402 15.9906 15.9906 20.0402 10.9952 20.0402C5.99978 20.0402 1.9502 15.9906 1.9502 10.9952C1.9502 5.99978 5.99978 1.9502 10.9952 1.9502C15.9906 1.9502 20.0402 5.99978 20.0402 10.9952Z" fill="#9CA3AF"/>
</svg>
