<svg width="20" height="20" viewBox="0 0 20 20" fill="none" xmlns="http://www.w3.org/2000/svg">
<path d="M13.5906 3.65361C13.0981 3.65361 12.8517 3.65361 12.6274 3.57037C12.5962 3.5588 12.5656 3.54608 12.5353 3.53223C12.3178 3.43245 12.1437 3.25832 11.7954 2.91005C10.9938 2.10847 10.5931 1.70768 10.0999 1.67072C10.0337 1.66575 9.96699 1.66575 9.90074 1.67072C9.40758 1.70768 9.00674 2.10847 8.2052 2.91004C7.85693 3.25832 7.6828 3.43245 7.4653 3.53223C7.43509 3.54608 7.40438 3.5588 7.37322 3.57037C7.14887 3.65361 6.9026 3.65361 6.41008 3.65361H6.31923C5.06264 3.65361 4.43435 3.65361 4.04398 4.04398C3.65361 4.43435 3.65361 5.06264 3.65361 6.31923V6.41008C3.65361 6.9026 3.65361 7.14887 3.57037 7.37322C3.5588 7.40438 3.54608 7.43509 3.53223 7.4653C3.43245 7.6828 3.25832 7.85693 2.91004 8.2052C2.10847 9.00674 1.70768 9.40758 1.67072 9.90074C1.66575 9.96699 1.66575 10.0337 1.67072 10.0999C1.70768 10.5931 2.10847 10.9938 2.91004 11.7954C3.25832 12.1437 3.43245 12.3178 3.53223 12.5353C3.54608 12.5656 3.5588 12.5962 3.57037 12.6274C3.65361 12.8517 3.65361 13.0981 3.65361 13.5906V13.6814C3.65361 14.938 3.65361 15.5663 4.04398 15.9567C4.43435 16.3471 5.06264 16.3471 6.31923 16.3471H6.41008C6.9026 16.3471 7.14887 16.3471 7.37322 16.4303C7.40438 16.4418 7.43509 16.4546 7.4653 16.4684C7.6828 16.5682 7.85693 16.7423 8.2052 17.0906C9.00674 17.8922 9.40758 18.293 9.90074 18.3299C9.96699 18.3349 10.0336 18.3349 10.0999 18.3299C10.5931 18.293 10.9938 17.8922 11.7954 17.0906C12.1437 16.7423 12.3178 16.5682 12.5353 16.4684C12.5656 16.4546 12.5962 16.4418 12.6274 16.4303C12.8517 16.3471 13.0981 16.3471 13.5906 16.3471H13.6814C14.938 16.3471 15.5663 16.3471 15.9567 15.9567C16.3471 15.5663 16.3471 14.938 16.3471 13.6814V13.5906C16.3471 13.0981 16.3471 12.8517 16.4303 12.6274C16.4418 12.5962 16.4546 12.5656 16.4684 12.5353C16.5682 12.3178 16.7423 12.1437 17.0906 11.7954C17.8922 10.9938 18.293 10.5931 18.3299 10.0999C18.3349 10.0336 18.3349 9.96699 18.3299 9.90074C18.293 9.40758 17.8922 9.00674 17.0906 8.2052C16.7423 7.85693 16.5682 7.6828 16.4684 7.4653C16.4546 7.43509 16.4418 7.40438 16.4303 7.37322C16.3471 7.14887 16.3471 6.9026 16.3471 6.41008V6.31923C16.3471 5.06264 16.3471 4.43435 15.9567 4.04398C15.5663 3.65361 14.938 3.65361 13.6814 3.65361H13.5906Z" stroke="#4B5563" stroke-width="1.25"/>
<path d="M12.9163 9.99967C12.9163 11.6105 11.6105 12.9163 9.99967 12.9163C8.38884 12.9163 7.08301 11.6105 7.08301 9.99967C7.08301 8.38884 8.38884 7.08301 9.99967 7.08301C11.6105 7.08301 12.9163 8.38884 12.9163 9.99967Z" stroke="#4B5563" stroke-width="1.25"/>
</svg>
