<svg width="925" height="256" viewBox="0 0 925 256" fill="none" xmlns="http://www.w3.org/2000/svg">
<rect x="315.682" y="22.3896" width="20.7433" height="10.3178" transform="rotate(-101.554 315.682 22.3896)" fill="#FFB21D"/>
<rect x="487.038" y="129.487" width="20.7433" height="10.3178" transform="rotate(-101.554 487.038 129.487)" fill="#0573FD"/>
<rect x="712.194" y="24.6607" width="38.6874" height="10.3178" transform="rotate(-169.307 712.194 24.6607)" fill="#16A34A"/>
<rect x="657.223" y="122.651" width="25.2294" height="14.8039" transform="rotate(-136.554 657.223 122.651)" fill="#FFB21D"/>
<path d="M164.367 53.4564L162.038 60.4376L155.057 58.1091L157.386 51.1279L164.367 53.4564Z" fill="#16A34A"/>
<rect x="57.7998" y="140.3" width="29.7154" height="5.83182" transform="rotate(-106.554 57.7998 140.3)" fill="#0573FD"/>
<rect x="209.977" y="156.204" width="11.7713" height="5.83182" transform="rotate(-66.5544 209.977 156.204)" fill="#FFB21D"/>
<ellipse cx="919.984" cy="231.789" rx="4.8449" ry="4.8449" transform="rotate(91.6925 919.984 231.789)" fill="#16A34A"/>
<ellipse cx="4.84499" cy="120.8" rx="4.8449" ry="4.8449" transform="rotate(91.6925 4.84499 120.8)" fill="#16A34A"/>
<path d="M126.463 238.388L147.124 237.827L137.279 256L126.463 238.388Z" fill="#FFB21D"/>
<path d="M723.593 191.268L736.482 190.919L730.34 202.255L723.593 191.268Z" fill="#16A34A"/>
<ellipse cx="598.691" cy="231.789" rx="4.8449" ry="4.8449" transform="rotate(91.6925 598.691 231.789)" fill="#16A34A"/>
<path d="M402.299 191.268L415.188 190.919L409.047 202.255L402.299 191.268Z" fill="#16A34A"/>
<rect width="29.6823" height="14.793" transform="matrix(0.882405 -0.471717 0.47121 0.882676 841.714 49.3084)" fill="#0573FD"/>
</svg>
