<svg width="56" height="56" viewBox="0 0 56 56" fill="none" xmlns="http://www.w3.org/2000/svg">
<rect width="56" height="56" rx="28" fill="black" fill-opacity="0.2"/>
<path d="M24 19.0978C24 19.0978 20.0337 18.7419 19.3878 19.3879C18.7419 20.0338 19.0978 24 19.0978 24" stroke="#C8D1E0" stroke-width="1.5" stroke-linecap="round" stroke-linejoin="round"/>
<path d="M24 36.9022C24 36.9022 20.0337 37.2581 19.3878 36.6122C18.7419 35.9662 19.0978 32 19.0978 32" stroke="#C8D1E0" stroke-width="1.5" stroke-linecap="round" stroke-linejoin="round"/>
<path d="M32 19.0978C32 19.0978 35.9663 18.7419 36.6122 19.3879C37.2581 20.0338 36.9022 24 36.9022 24" stroke="#C8D1E0" stroke-width="1.5" stroke-linecap="round" stroke-linejoin="round"/>
<path d="M32 36.9022C32 36.9022 35.9663 37.2581 36.6122 36.6122C37.2581 35.9662 36.9022 32 36.9022 32" stroke="#C8D1E0" stroke-width="1.5" stroke-linecap="round" stroke-linejoin="round"/>
<path d="M30.0107 25.9985L36.0625 19.9468" stroke="#C8D1E0" stroke-width="1.5" stroke-linecap="round" stroke-linejoin="round"/>
<path d="M25.9969 30.0024L19.6396 36.3807" stroke="#C8D1E0" stroke-width="1.5" stroke-linecap="round" stroke-linejoin="round"/>
<path d="M25.9973 26.0024L19.8457 19.8589" stroke="#C8D1E0" stroke-width="1.5" stroke-linecap="round" stroke-linejoin="round"/>
<path d="M29.9795 30.0024L36.5279 36.4983" stroke="#C8D1E0" stroke-width="1.5" stroke-linecap="round" stroke-linejoin="round"/>
</svg>
