<svg width="56" height="56" viewBox="0 0 56 56" fill="none" xmlns="http://www.w3.org/2000/svg">
<rect width="56" height="56" rx="28" fill="black" fill-opacity="0.2"/>
<path d="M20 23C20 21.5858 20 20.8787 20.4393 20.4393C20.8787 20 21.5858 20 23 20C24.4142 20 25.1213 20 25.5607 20.4393C26 20.8787 26 21.5858 26 23V33C26 34.4142 26 35.1213 25.5607 35.5607C25.1213 36 24.4142 36 23 36C21.5858 36 20.8787 36 20.4393 35.5607C20 35.1213 20 34.4142 20 33V23Z" stroke="#C8D1E0" stroke-width="1.5"/>
<path d="M30 23C30 21.5858 30 20.8787 30.4393 20.4393C30.8787 20 31.5858 20 33 20C34.4142 20 35.1213 20 35.5607 20.4393C36 20.8787 36 21.5858 36 23V33C36 34.4142 36 35.1213 35.5607 35.5607C35.1213 36 34.4142 36 33 36C31.5858 36 30.8787 36 30.4393 35.5607C30 35.1213 30 34.4142 30 33V23Z" stroke="#C8D1E0" stroke-width="1.5"/>
</svg>
