<svg width="56" height="56" viewBox="0 0 56 56" fill="none" xmlns="http://www.w3.org/2000/svg">
<rect width="56" height="56" rx="28" fill="black" fill-opacity="0.2"/>
<path d="M31.5 28C31.5 29.933 29.933 31.5 28 31.5C26.067 31.5 24.5 29.933 24.5 28C24.5 26.067 26.067 24.5 28 24.5C29.933 24.5 31.5 26.067 31.5 28Z" stroke="#C8D1E0" stroke-width="1.5"/>
<path d="M36.7906 25.152C37.5969 26.5418 38 27.2366 38 28C38 28.7634 37.5969 29.4582 36.7906 30.848L34.8669 34.1638C34.0638 35.548 33.6623 36.2402 33.0019 36.6201C32.3416 37 31.5402 37 29.9373 37H26.0627C24.4598 37 23.6584 37 22.9981 36.6201C22.3377 36.2402 21.9362 35.548 21.1331 34.1638L19.2094 30.848C18.4031 29.4582 18 28.7634 18 28C18 27.2366 18.4031 26.5418 19.2094 25.152L21.1331 21.8362C21.9362 20.452 22.3377 19.7598 22.9981 19.3799C23.6584 19 24.4598 19 26.0627 19H29.9373C31.5402 19 32.3416 19 33.0019 19.3799C33.6623 19.7598 34.0638 20.452 34.8669 21.8362L36.7906 25.152Z" stroke="#C8D1E0" stroke-width="1.5"/>
</svg>
