<svg width="56" height="56" viewBox="0 0 56 56" fill="none" xmlns="http://www.w3.org/2000/svg">
<rect width="56" height="56" rx="28" fill="black" fill-opacity="0.2"/>
<path d="M30 30.8135V25.1865C30 22.0413 30 20.4687 29.0747 20.0773C28.1494 19.6859 27.0603 20.7979 24.8823 23.0219C23.7544 24.1736 23.1109 24.4287 21.506 24.4287C20.1026 24.4287 19.4008 24.4287 18.8968 24.7726C17.8504 25.4865 18.0085 26.882 18.0085 28C18.0085 29.118 17.8504 30.5134 18.8968 31.2274C19.4008 31.5713 20.1026 31.5713 21.506 31.5713C23.1109 31.5713 23.7544 31.8264 24.8823 32.9781C27.0603 35.2021 28.1494 36.3141 29.0747 35.9227C30 35.5313 30 33.9587 30 30.8135Z" stroke="#C8D1E0" stroke-width="1.5" stroke-linecap="round" stroke-linejoin="round"/>
<path d="M33 25C33.6254 25.8197 34 26.8634 34 28C34 29.1366 33.6254 30.1803 33 31" stroke="#C8D1E0" stroke-width="1.5" stroke-linecap="round" stroke-linejoin="round"/>
<path d="M36 23C37.2508 24.3661 38 26.1057 38 28C38 29.8943 37.2508 31.6339 36 33" stroke="#C8D1E0" stroke-width="1.5" stroke-linecap="round" stroke-linejoin="round"/>
</svg>
