<svg width="24" height="24" viewBox="0 0 24 24" fill="none" xmlns="http://www.w3.org/2000/svg">
<path d="M17.0158 16.5V21.282C17.0158 21.6025 16.8064 21.874 16.5174 21.9663M17.0158 16.5L10.8772 12M17.0158 16.5V7.5M16.5174 21.9663C16.4488 21.9882 16.3758 22 16.3 22C16.1193 22 15.9453 21.9315 15.8129 21.8081L7.74691 14.2947M16.5174 21.9663L21.4111 19.7649C21.7695 19.6037 22.0001 19.2465 22.0001 18.8525V5.14752C22.0001 4.75353 21.7695 4.39626 21.4111 4.23506L16.5174 2.0337M10.8772 12L7.74691 9.7053M10.8772 12L17.0158 7.5M17.0158 7.5V2.71803C17.0158 2.39749 16.8064 2.126 16.5174 2.0337M7.74691 9.7053L4.25118 7.03035C3.85429 6.72665 3.29466 6.76425 2.94169 7.11833L2.2921 7.76997C1.89399 8.16933 1.90433 8.81995 2.31494 9.20638L5.28343 12M7.74691 9.7053L15.8129 2.19186C15.9453 2.06854 16.1193 2 16.3 2C16.3758 2 16.4488 2.01181 16.5174 2.0337M5.28343 12L2.31494 14.7936C1.90433 15.18 1.89399 15.8307 2.2921 16.23L2.94169 16.8817C3.29466 17.2357 3.85429 17.2733 4.25118 16.9696L7.74691 14.2947M5.28343 12L7.74691 14.2947" stroke="#4B5563" stroke-width="1.5" stroke-linecap="round" stroke-linejoin="round"/>
</svg>
