<svg width="24" height="24" viewBox="0 0 24 24" fill="none" xmlns="http://www.w3.org/2000/svg">
<path d="M5.33333 3.00001C7.79379 2.99657 10.1685 3.88709 12 5.5V21C10.1685 19.3871 7.79379 18.4966 5.33333 18.5C3.77132 18.5 2.99032 18.5 2.64526 18.2792C2.4381 18.1466 2.35346 18.0619 2.22086 17.8547C2 17.5097 2 16.8941 2 15.6629V6.40322C2 4.97543 2 4.26154 2.54874 3.68286C3.09748 3.10418 3.65923 3.07432 4.78272 3.0146C4.965 3.00491 5.14858 3.00001 5.33333 3.00001Z" stroke="#1C4ED1" stroke-width="1.5" stroke-linecap="round" stroke-linejoin="round"/>
<path d="M18.6667 3.00001C16.2062 2.99657 13.8315 3.88709 12 5.5V21C13.8315 19.3871 16.2062 18.4966 18.6667 18.5C20.2287 18.5 21.0097 18.5 21.3547 18.2792C21.5619 18.1466 21.6465 18.0619 21.7791 17.8547C22 17.5097 22 16.8941 22 15.6629V6.40322C22 4.97543 22 4.26154 21.4513 3.68286C20.9025 3.10418 20.3408 3.07432 19.2173 3.0146C19.035 3.00491 18.8514 3.00001 18.6667 3.00001Z" stroke="#1C4ED1" stroke-width="1.5" stroke-linecap="round" stroke-linejoin="round"/>
<path d="M19 7.32517C18.8893 7.32162 18.7782 7.31983 18.6667 7.31983C18.1048 7.31905 17.5475 7.36488 17 7.45527M19 11.0062C18.8893 11.0027 18.7782 11.0009 18.6667 11.0009C17.401 10.9991 16.158 11.2339 15 11.6819M19 14.5005C18.8893 14.497 18.7782 14.4952 18.6667 14.4952C17.401 14.4934 16.158 14.7282 15 15.1762" stroke="#1C4ED1" stroke-width="1.5" stroke-linecap="round" stroke-linejoin="round"/>
<path d="M5 7.32517C5.11067 7.32162 5.22179 7.31983 5.33333 7.31983C5.89518 7.31905 6.45255 7.36488 7 7.45527M5 11.0062C5.11067 11.0027 5.22179 11.0009 5.33333 11.0009C6.599 10.9991 7.84198 11.2339 9 11.6819M5 14.5005C5.11067 14.497 5.22179 14.4952 5.33333 14.4952C6.599 14.4934 7.84198 14.7282 9 15.1762" stroke="#1C4ED1" stroke-width="1.5" stroke-linecap="round" stroke-linejoin="round"/>
</svg>
