<svg width="10" height="10" viewBox="0 0 10 10" fill="none" xmlns="http://www.w3.org/2000/svg">
<path d="M2.2219 1.25C3.24709 1.24857 4.23655 1.61962 4.99967 2.29167V8.75C4.23655 8.07796 3.24709 7.70692 2.2219 7.70833C1.57106 7.70833 1.24564 7.70833 1.10187 7.61633C1.01555 7.56108 0.980283 7.52579 0.925033 7.43946C0.833008 7.29571 0.833008 7.03921 0.833008 6.52621V2.66801C0.833008 2.0731 0.833008 1.77564 1.06165 1.53452C1.29029 1.29341 1.52435 1.28097 1.99247 1.25608C2.06842 1.25205 2.14492 1.25 2.2219 1.25Z" stroke="#1C4ED1" stroke-width="0.625" stroke-linecap="round" stroke-linejoin="round"/>
<path d="M7.77779 1.25C6.75258 1.24857 5.76313 1.61962 5 2.29167V8.75C5.76313 8.07796 6.75258 7.70692 7.77779 7.70833C8.42863 7.70833 8.75404 7.70833 8.89779 7.61633C8.98412 7.56108 9.01938 7.52579 9.07463 7.43946C9.16667 7.29571 9.16667 7.03921 9.16667 6.52621V2.66801C9.16667 2.0731 9.16667 1.77564 8.93804 1.53452C8.70937 1.29341 8.47533 1.28097 8.00721 1.25608C7.93125 1.25205 7.85475 1.25 7.77779 1.25Z" stroke="#1C4ED1" stroke-width="0.625" stroke-linecap="round" stroke-linejoin="round"/>
</svg>
