<svg width="20" height="20" viewBox="0 0 20 20" fill="none" xmlns="http://www.w3.org/2000/svg">
<path d="M4.44477 2.50001C6.49515 2.49714 8.47408 3.23924 10.0003 4.58333V17.5C8.47408 16.1559 6.49515 15.4138 4.44477 15.4167C3.14309 15.4167 2.49226 15.4167 2.20471 15.2327C2.03208 15.1222 1.96154 15.0516 1.85104 14.8789C1.66699 14.5914 1.66699 14.0784 1.66699 13.0524V5.33602C1.66699 4.14619 1.66699 3.55128 2.12428 3.06905C2.58156 2.58682 3.04968 2.56193 3.98593 2.51217C4.13783 2.50409 4.29081 2.50001 4.44477 2.50001Z" stroke="#4B5563" stroke-width="1.25" stroke-linecap="round" stroke-linejoin="round"/>
<path d="M15.5556 2.50001C13.5052 2.49714 11.5263 3.23924 10 4.58333V17.5C11.5263 16.1559 13.5052 15.4138 15.5556 15.4167C16.8573 15.4167 17.5081 15.4167 17.7956 15.2327C17.9682 15.1222 18.0388 15.0516 18.1493 14.8789C18.3333 14.5914 18.3333 14.0784 18.3333 13.0524V5.33602C18.3333 4.14619 18.3333 3.55128 17.8761 3.06905C17.4187 2.58682 16.9507 2.56193 16.0144 2.51217C15.8625 2.50409 15.7095 2.50001 15.5556 2.50001Z" stroke="#4B5563" stroke-width="1.25" stroke-linecap="round" stroke-linejoin="round"/>
<path d="M15.8333 6.10471C15.7411 6.10175 15.6485 6.10026 15.5556 6.10026C15.0873 6.09961 14.6229 6.1378 14.1667 6.21312M15.8333 9.17224C15.7411 9.16932 15.6485 9.16783 15.5556 9.16783C14.5008 9.16633 13.465 9.36199 12.5 9.73533M15.8333 12.0842C15.7411 12.0812 15.6485 12.0797 15.5556 12.0797C14.5008 12.0782 13.465 12.2739 12.5 12.6472" stroke="#4B5563" stroke-width="1.25" stroke-linecap="round" stroke-linejoin="round"/>
<path d="M4.16699 6.10471C4.25922 6.10175 4.35182 6.10026 4.44477 6.10026C4.91298 6.09961 5.37745 6.1378 5.83366 6.21312M4.16699 9.17224C4.25922 9.16932 4.35182 9.16783 4.44477 9.16783C5.49949 9.16633 6.53531 9.36199 7.50033 9.73533M4.16699 12.0842C4.25922 12.0812 4.35182 12.0797 4.44477 12.0797C5.49949 12.0782 6.53531 12.2739 7.50033 12.6472" stroke="#4B5563" stroke-width="1.25" stroke-linecap="round" stroke-linejoin="round"/>
</svg>
