<svg width="16" height="16" viewBox="0 0 16 16" fill="none" xmlns="http://www.w3.org/2000/svg">
<path d="M9.33301 14H10.6663M9.33301 14C8.78074 14 8.33301 13.5522 8.33301 13V11.3333H7.99967M9.33301 14H6.66634M7.99967 11.3333H7.66634V13C7.66634 13.5522 7.21861 14 6.66634 14M7.99967 11.3333V14M6.66634 14H5.33301" stroke="#1C4ED1" stroke-width="1.25" stroke-linecap="round" stroke-linejoin="round"/>
<path d="M10.6663 2H5.33301C3.44739 2 2.50458 2 1.91879 2.58579C1.33301 3.17157 1.33301 4.11438 1.33301 6V7.33333C1.33301 9.21893 1.33301 10.1617 1.91879 10.7475C2.50458 11.3333 3.44739 11.3333 5.33301 11.3333H10.6663C12.5519 11.3333 13.4947 11.3333 14.0805 10.7475C14.6663 10.1617 14.6663 9.21893 14.6663 7.33333V6C14.6663 4.11438 14.6663 3.17157 14.0805 2.58579C13.4947 2 12.5519 2 10.6663 2Z" stroke="#1C4ED1" stroke-width="1.25" stroke-linecap="round" stroke-linejoin="round"/>
<path d="M9.71766 6.15669L7.45966 4.74543C7.37733 4.69397 7.28219 4.66669 7.18506 4.66669C6.89893 4.66669 6.66699 4.89864 6.66699 5.18477V8.14862C6.66699 8.43475 6.89893 8.66669 7.18506 8.66669C7.28219 8.66669 7.37733 8.63942 7.45966 8.58795L9.71766 7.17669C9.89353 7.06675 10.0003 6.87402 10.0003 6.66669C10.0003 6.45933 9.89353 6.26659 9.71766 6.15669Z" stroke="#1C4ED1" stroke-width="1.25" stroke-linecap="round" stroke-linejoin="round"/>
</svg>
