<svg width="10" height="10" viewBox="0 0 10 10" fill="none" xmlns="http://www.w3.org/2000/svg">
<path d="M5.83301 8.75004H6.66634M5.83301 8.75004C5.48784 8.75004 5.20801 8.47021 5.20801 8.12504V7.08337H4.99967M5.83301 8.75004H4.16634M4.99967 7.08337H4.79134V8.12504C4.79134 8.47021 4.51151 8.75004 4.16634 8.75004M4.99967 7.08337V8.75004M4.16634 8.75004H3.33301" stroke="#1C4ED1" stroke-width="0.625" stroke-linecap="round" stroke-linejoin="round"/>
<path d="M6.66634 1.25H3.33301C2.1545 1.25 1.56524 1.25 1.19912 1.61612C0.833008 1.98223 0.833008 2.57149 0.833008 3.75V4.58333C0.833008 5.76183 0.833008 6.35108 1.19912 6.71721C1.56524 7.08333 2.1545 7.08333 3.33301 7.08333H6.66634C7.84484 7.08333 8.43409 7.08333 8.80022 6.71721C9.16634 6.35108 9.16634 5.76183 9.16634 4.58333V3.75C9.16634 2.57149 9.16634 1.98223 8.80022 1.61612C8.43409 1.25 7.84484 1.25 6.66634 1.25Z" stroke="#1C4ED1" stroke-width="0.625" stroke-linecap="round" stroke-linejoin="round"/>
<path d="M6.07366 3.84788L4.66241 2.96584C4.61095 2.93368 4.55149 2.91663 4.49078 2.91663C4.31195 2.91663 4.16699 3.0616 4.16699 3.24043V5.09283C4.16699 5.27167 4.31195 5.41663 4.49078 5.41663C4.55149 5.41663 4.61095 5.39958 4.66241 5.36742L6.07366 4.48538C6.18358 4.41667 6.25033 4.29621 6.25033 4.16663C6.25033 4.03703 6.18358 3.91656 6.07366 3.84788Z" stroke="#1C4ED1" stroke-width="0.625" stroke-linecap="round" stroke-linejoin="round"/>
</svg>
