<svg width="24" height="24" viewBox="0 0 24 24" fill="none" xmlns="http://www.w3.org/2000/svg">
<path d="M12 21.5021C16.4183 21.5021 20 17.9204 20 13.5021C20 10.541 18.3912 6.60818 16 4.33612L14 7.00049L10.5 2.50049C7 5.00049 4 9.5966 4 13.5021C4 17.9204 7.58172 21.5021 12 21.5021Z" stroke="#1C4ED1" stroke-width="1.5" stroke-linejoin="round"/>
<path d="M12 18.499C14.2091 18.499 16 16.4843 16 13.999C16 13.208 15.8186 12.4647 15.5 11.8188L13.5 13.499L10.5 9.49805C9.5 10.498 8 12.1105 8 13.999C8 16.4843 9.79086 18.499 12 18.499Z" stroke="#1C4ED1" stroke-width="1.5" stroke-linejoin="round"/>
</svg>
