<svg width="20" height="20" viewBox="0 0 20 20" fill="none" xmlns="http://www.w3.org/2000/svg">
<path d="M1.66699 5.83333C1.66699 4.66656 1.66699 4.08317 1.89406 3.63752C2.0938 3.24552 2.41251 2.92681 2.80451 2.72707C3.25016 2.5 3.83355 2.5 5.00033 2.5C6.1671 2.5 6.75049 2.5 7.19614 2.72707C7.58814 2.92681 7.90685 3.24552 8.10659 3.63752C8.33366 4.08317 8.33366 4.66656 8.33366 5.83333V14.1667C8.33366 15.3334 8.33366 15.9168 8.10659 16.3625C7.90685 16.7545 7.58814 17.0732 7.19614 17.2729C6.75049 17.5 6.1671 17.5 5.00033 17.5C3.83355 17.5 3.25016 17.5 2.80451 17.2729C2.41251 17.0732 2.0938 16.7545 1.89406 16.3625C1.66699 15.9168 1.66699 15.3334 1.66699 14.1667V5.83333Z" stroke="#4B5563" stroke-width="1.25" stroke-linecap="round" stroke-linejoin="round"/>
<path d="M5.10449 14.1666H5.00033M5.20866 14.1666C5.20866 14.2817 5.11538 14.375 5.00033 14.375C4.88527 14.375 4.79199 14.2817 4.79199 14.1666C4.79199 14.0516 4.88527 13.9583 5.00033 13.9583C5.11538 13.9583 5.20866 14.0516 5.20866 14.1666Z" stroke="#4B5563" stroke-width="1.25" stroke-linecap="round" stroke-linejoin="round"/>
<path d="M14.9219 13.9112H14.8177M15.026 13.9112C15.026 14.0262 14.9328 14.1195 14.8177 14.1195C14.7027 14.1195 14.6094 14.0262 14.6094 13.9112C14.6094 13.7961 14.7027 13.7028 14.8177 13.7028C14.9328 13.7028 15.026 13.7961 15.026 13.9112Z" stroke="#4B5563" stroke-width="1.25" stroke-linecap="round" stroke-linejoin="round"/>
<path d="M1.66699 5.83331H8.33366" stroke="#4B5563" stroke-width="1.25" stroke-linecap="round" stroke-linejoin="round"/>
<path d="M9.54082 6.89036C9.24507 5.78198 9.09723 5.2278 9.19907 4.74666C9.28865 4.32343 9.50932 3.93956 9.82957 3.65004C10.1936 3.3209 10.7455 3.17241 11.8492 2.87542C12.953 2.57843 13.5049 2.42994 13.984 2.53221C14.4055 2.62217 14.7877 2.8438 15.0761 3.16534C15.4038 3.53088 15.5517 4.08507 15.8475 5.19344L17.9598 13.1097C18.2556 14.218 18.4034 14.7722 18.3016 15.2533C18.212 15.6766 17.9913 16.0604 17.6711 16.35C17.3071 16.6791 16.7551 16.8276 15.6514 17.1246C14.5476 17.4216 13.9957 17.5701 13.5166 17.4678C13.0951 17.3778 12.7129 17.1562 12.4246 16.8347C12.0968 16.4691 11.9489 15.9149 11.6531 14.8066L9.54082 6.89036Z" stroke="#4B5563" stroke-width="1.25" stroke-linecap="round" stroke-linejoin="round"/>
<path d="M10 6.66682L15.4167 5" stroke="#4B5563" stroke-width="1.25" stroke-linecap="round" stroke-linejoin="round"/>
</svg>
