<svg width="24" height="24" viewBox="0 0 24 24" fill="none" xmlns="http://www.w3.org/2000/svg">
<path d="M6.00488 12.5V12M18.0049 12.5V12M12.0049 12.5V12M7.00488 12.5C7.00488 11.9477 6.55716 11.5 6.00488 11.5C5.45259 11.5 5.00488 11.9477 5.00488 12.5C5.00488 13.0523 5.45259 13.5 6.00488 13.5C6.55716 13.5 7.00488 13.0523 7.00488 12.5ZM19.0049 12.5C19.0049 11.9477 18.5572 11.5 18.0049 11.5C17.4526 11.5 17.0049 11.9477 17.0049 12.5C17.0049 13.0523 17.4526 13.5 18.0049 13.5C18.5572 13.5 19.0049 13.0523 19.0049 12.5ZM13.0049 12.5C13.0049 11.9477 12.5572 11.5 12.0049 11.5C11.4526 11.5 11.0049 11.9477 11.0049 12.5C11.0049 13.0523 11.4526 13.5 12.0049 13.5C12.5572 13.5 13.0049 13.0523 13.0049 12.5Z" stroke="#1C4ED1" stroke-width="1.5" stroke-linecap="round" stroke-linejoin="round"/>
</svg>
