<svg width="24" height="24" viewBox="0 0 24 24" fill="none" xmlns="http://www.w3.org/2000/svg">
<path d="M15.9338 15.9337C16.3018 15.5658 16.8837 15.5431 17.2784 15.8651L17.355 15.9337L21.7165 20.2953L21.7862 20.3718C22.1078 20.7666 22.0843 21.3486 21.7165 21.7164C21.3487 22.0842 20.7667 22.1078 20.3719 21.7862L20.2954 21.7164L15.9338 17.3549L15.8652 17.2783C15.5432 16.8836 15.5659 16.3017 15.9338 15.9337Z" fill="#9CA3AF"/>
<path d="M18.0302 10.995C18.0302 7.10971 14.8805 3.96003 10.9952 3.96003C7.10988 3.96003 3.9602 7.10971 3.9602 10.995C3.9602 14.8804 7.10988 18.03 10.9952 18.03C14.8805 18.03 18.0302 14.8804 18.0302 10.995ZM20.0402 10.995C20.0402 15.9905 15.9906 20.04 10.9952 20.04C5.99978 20.04 1.9502 15.9905 1.9502 10.995C1.9502 5.99961 5.99978 1.95003 10.9952 1.95003C15.9906 1.95003 20.0402 5.99961 20.0402 10.995Z" fill="#9CA3AF"/>
</svg>
