<svg width="20" height="20" viewBox="0 0 20 20" fill="none" xmlns="http://www.w3.org/2000/svg">
<path d="M13.5906 3.6533C13.0981 3.6533 12.8517 3.6533 12.6274 3.57006C12.5962 3.5585 12.5656 3.54578 12.5353 3.53192C12.3178 3.43215 12.1437 3.25801 11.7954 2.90975C10.9938 2.10816 10.5931 1.70737 10.0999 1.67041C10.0337 1.66545 9.96699 1.66545 9.90074 1.67041C9.40758 1.70737 9.00674 2.10816 8.2052 2.90974C7.85693 3.25801 7.6828 3.43215 7.4653 3.53192C7.43509 3.54578 7.40438 3.5585 7.37322 3.57006C7.14887 3.6533 6.9026 3.6533 6.41008 3.6533H6.31923C5.06264 3.6533 4.43435 3.6533 4.04398 4.04368C3.65361 4.43405 3.65361 5.06234 3.65361 6.31893V6.40978C3.65361 6.9023 3.65361 7.14856 3.57037 7.37291C3.5588 7.40407 3.54608 7.43479 3.53223 7.46499C3.43245 7.68249 3.25832 7.85663 2.91004 8.2049C2.10847 9.00644 1.70768 9.40727 1.67072 9.90044C1.66575 9.96669 1.66575 10.0334 1.67072 10.0996C1.70768 10.5928 2.10847 10.9935 2.91004 11.7951C3.25832 12.1434 3.43245 12.3175 3.53223 12.535C3.54608 12.5653 3.5588 12.5959 3.57037 12.6271C3.65361 12.8514 3.65361 13.0978 3.65361 13.5903V13.6811C3.65361 14.9377 3.65361 15.566 4.04398 15.9564C4.43435 16.3468 5.06264 16.3468 6.31923 16.3468H6.41008C6.9026 16.3468 7.14887 16.3468 7.37322 16.43C7.40438 16.4415 7.43509 16.4543 7.4653 16.4681C7.6828 16.5679 7.85693 16.742 8.2052 17.0903C9.00674 17.8919 9.40758 18.2927 9.90074 18.3296C9.96699 18.3346 10.0336 18.3346 10.0999 18.3296C10.5931 18.2927 10.9938 17.8919 11.7954 17.0903C12.1437 16.742 12.3178 16.5679 12.5353 16.4681C12.5656 16.4543 12.5962 16.4415 12.6274 16.43C12.8517 16.3468 13.0981 16.3468 13.5906 16.3468H13.6814C14.938 16.3468 15.5663 16.3468 15.9567 15.9564C16.3471 15.566 16.3471 14.9377 16.3471 13.6811V13.5903C16.3471 13.0978 16.3471 12.8514 16.4303 12.6271C16.4418 12.5959 16.4546 12.5653 16.4684 12.535C16.5682 12.3175 16.7423 12.1434 17.0906 11.7951C17.8922 10.9935 18.293 10.5928 18.3299 10.0996C18.3349 10.0333 18.3349 9.96669 18.3299 9.90044C18.293 9.40727 17.8922 9.00644 17.0906 8.2049C16.7423 7.85663 16.5682 7.68249 16.4684 7.46499C16.4546 7.43479 16.4418 7.40407 16.4303 7.37291C16.3471 7.14856 16.3471 6.9023 16.3471 6.40978V6.31893C16.3471 5.06234 16.3471 4.43405 15.9567 4.04368C15.5663 3.6533 14.938 3.6533 13.6814 3.6533H13.5906Z" stroke="#4B5563" stroke-width="1.25"/>
<path d="M12.9163 9.99998C12.9163 11.6108 11.6105 12.9166 9.99967 12.9166C8.38884 12.9166 7.08301 11.6108 7.08301 9.99998C7.08301 8.38915 8.38884 7.08331 9.99967 7.08331C11.6105 7.08331 12.9163 8.38915 12.9163 9.99998Z" stroke="#4B5563" stroke-width="1.25"/>
</svg>
